<mxfile host="app.diagrams.net" modified="2024-06-27T21:51:17.729Z" agent="Mozilla/5.0 (Windows NT 10.0; Win64; x64; rv:127.0) Gecko/20100101 Firefox/127.0" etag="45ZZNjbgbW5lr6FZTWrG" version="24.6.2" type="device">
  <diagram name="Page-1" id="74e2e168-ea6b-b213-b513-2b3c1d86103e">
    <mxGraphModel dx="1834" dy="746" grid="1" gridSize="10" guides="1" tooltips="1" connect="1" arrows="1" fold="1" page="0" pageScale="1" pageWidth="1100" pageHeight="850" background="#FFFFFF" math="0" shadow="0">
      <root>
        <mxCell id="0" />
        <mxCell id="1" parent="0" />
        <mxCell id="tXQdEWdfQbnc47CWB7LX-115" value="" style="swimlane;startSize=0;rounded=0;labelBackgroundColor=none;" parent="1" vertex="1">
          <mxGeometry x="-80" y="90" width="1040" height="600" as="geometry" />
        </mxCell>
        <mxCell id="tXQdEWdfQbnc47CWB7LX-1" value="&lt;b&gt;&lt;font style=&quot;font-size: 22px;&quot;&gt;Asset&lt;/font&gt;&lt;/b&gt;" style="rounded=0;whiteSpace=wrap;html=1;labelBackgroundColor=none;fillColor=#00CC00;" parent="tXQdEWdfQbnc47CWB7LX-115" vertex="1">
          <mxGeometry x="465" y="202.5" width="120" height="60" as="geometry" />
        </mxCell>
        <mxCell id="tXQdEWdfQbnc47CWB7LX-5" value="&lt;font style=&quot;font-size: 14px;&quot;&gt;Acquisition Event&lt;b&gt;&lt;br&gt;&lt;/b&gt;&lt;/font&gt;" style="rounded=0;whiteSpace=wrap;html=1;labelBackgroundColor=none;fillColor=#00CC00;" parent="tXQdEWdfQbnc47CWB7LX-115" vertex="1">
          <mxGeometry x="165" y="202.5" width="120" height="60" as="geometry" />
        </mxCell>
        <mxCell id="tXQdEWdfQbnc47CWB7LX-6" value="&lt;div&gt;Has&lt;/div&gt;" style="rhombus;whiteSpace=wrap;html=1;rounded=0;labelBackgroundColor=none;fillColor=#CC99FF;" parent="tXQdEWdfQbnc47CWB7LX-115" vertex="1">
          <mxGeometry x="645" y="202.5" width="60" height="60" as="geometry" />
        </mxCell>
        <mxCell id="tXQdEWdfQbnc47CWB7LX-7" value="&lt;font style=&quot;font-size: 20px;&quot;&gt;Tags&lt;/font&gt;" style="rounded=0;whiteSpace=wrap;html=1;labelBackgroundColor=none;fillColor=#00CC00;" parent="tXQdEWdfQbnc47CWB7LX-115" vertex="1">
          <mxGeometry x="765" y="202.5" width="120" height="60" as="geometry" />
        </mxCell>
        <mxCell id="tXQdEWdfQbnc47CWB7LX-9" value="" style="endArrow=none;html=1;rounded=0;entryX=0;entryY=0.5;entryDx=0;entryDy=0;exitX=1;exitY=0.5;exitDx=0;exitDy=0;labelBackgroundColor=none;fontColor=default;" parent="tXQdEWdfQbnc47CWB7LX-115" target="tXQdEWdfQbnc47CWB7LX-1" edge="1">
          <mxGeometry width="50" height="50" relative="1" as="geometry">
            <mxPoint x="405" y="232" as="sourcePoint" />
            <mxPoint x="475" y="232" as="targetPoint" />
          </mxGeometry>
        </mxCell>
        <mxCell id="tXQdEWdfQbnc47CWB7LX-11" value="" style="endArrow=none;html=1;rounded=0;entryX=0;entryY=0.5;entryDx=0;entryDy=0;exitX=1;exitY=0.5;exitDx=0;exitDy=0;labelBackgroundColor=none;fontColor=default;" parent="tXQdEWdfQbnc47CWB7LX-115" source="tXQdEWdfQbnc47CWB7LX-1" edge="1">
          <mxGeometry width="50" height="50" relative="1" as="geometry">
            <mxPoint x="575" y="232" as="sourcePoint" />
            <mxPoint x="645" y="232" as="targetPoint" />
          </mxGeometry>
        </mxCell>
        <mxCell id="tXQdEWdfQbnc47CWB7LX-12" value="" style="endArrow=none;html=1;rounded=0;entryX=0;entryY=0.5;entryDx=0;entryDy=0;exitX=1;exitY=0.5;exitDx=0;exitDy=0;labelBackgroundColor=none;fontColor=default;" parent="tXQdEWdfQbnc47CWB7LX-115" target="tXQdEWdfQbnc47CWB7LX-7" edge="1">
          <mxGeometry width="50" height="50" relative="1" as="geometry">
            <mxPoint x="705" y="232" as="sourcePoint" />
            <mxPoint x="775" y="232" as="targetPoint" />
          </mxGeometry>
        </mxCell>
        <mxCell id="tXQdEWdfQbnc47CWB7LX-26" value="&lt;font style=&quot;font-size: 16px;&quot;&gt;1&lt;/font&gt;" style="text;html=1;align=center;verticalAlign=middle;resizable=0;points=[];autosize=1;strokeColor=none;fillColor=none;rounded=0;labelBackgroundColor=none;" parent="tXQdEWdfQbnc47CWB7LX-115" vertex="1">
          <mxGeometry x="300" y="202.5" width="30" height="30" as="geometry" />
        </mxCell>
        <mxCell id="tXQdEWdfQbnc47CWB7LX-28" value="" style="endArrow=none;html=1;rounded=0;entryX=0;entryY=0.5;entryDx=0;entryDy=0;exitX=1;exitY=0.5;exitDx=0;exitDy=0;labelBackgroundColor=none;fontColor=default;" parent="tXQdEWdfQbnc47CWB7LX-115" edge="1">
          <mxGeometry width="50" height="50" relative="1" as="geometry">
            <mxPoint x="285" y="232" as="sourcePoint" />
            <mxPoint x="345" y="232.5" as="targetPoint" />
          </mxGeometry>
        </mxCell>
        <mxCell id="tXQdEWdfQbnc47CWB7LX-29" value="&lt;font style=&quot;font-size: 16px;&quot;&gt;N&lt;/font&gt;" style="text;html=1;align=center;verticalAlign=middle;resizable=0;points=[];autosize=1;strokeColor=none;fillColor=none;rounded=0;labelBackgroundColor=none;" parent="tXQdEWdfQbnc47CWB7LX-115" vertex="1">
          <mxGeometry x="410" y="202.5" width="40" height="30" as="geometry" />
        </mxCell>
        <mxCell id="tXQdEWdfQbnc47CWB7LX-35" value="&lt;font style=&quot;font-size: 16px;&quot;&gt;M&lt;/font&gt;" style="text;html=1;align=center;verticalAlign=middle;resizable=0;points=[];autosize=1;strokeColor=none;fillColor=none;rounded=0;labelBackgroundColor=none;" parent="tXQdEWdfQbnc47CWB7LX-115" vertex="1">
          <mxGeometry x="710" y="202.5" width="40" height="30" as="geometry" />
        </mxCell>
        <mxCell id="tXQdEWdfQbnc47CWB7LX-36" value="&lt;div&gt;Gets&lt;/div&gt;" style="rhombus;whiteSpace=wrap;html=1;rounded=0;labelBackgroundColor=none;fillColor=#CC99FF;" parent="tXQdEWdfQbnc47CWB7LX-115" vertex="1">
          <mxGeometry x="345" y="202.5" width="60" height="60" as="geometry" />
        </mxCell>
        <mxCell id="tXQdEWdfQbnc47CWB7LX-77" value="" style="endArrow=none;html=1;rounded=0;exitX=1;exitY=0.5;exitDx=0;exitDy=0;labelBackgroundColor=none;fontColor=default;entryX=0.15;entryY=0.989;entryDx=0;entryDy=0;entryPerimeter=0;" parent="tXQdEWdfQbnc47CWB7LX-115" edge="1" target="tXQdEWdfQbnc47CWB7LX-5">
          <mxGeometry width="50" height="50" relative="1" as="geometry">
            <mxPoint x="145" y="312.5" as="sourcePoint" />
            <mxPoint x="205" y="262.5" as="targetPoint" />
            <Array as="points">
              <mxPoint x="183" y="312.5" />
            </Array>
          </mxGeometry>
        </mxCell>
        <mxCell id="tXQdEWdfQbnc47CWB7LX-78" value="" style="endArrow=none;html=1;rounded=0;exitX=1;exitY=0.5;exitDx=0;exitDy=0;labelBackgroundColor=none;fontColor=default;entryX=0.25;entryY=1;entryDx=0;entryDy=0;" parent="tXQdEWdfQbnc47CWB7LX-115" edge="1" target="tXQdEWdfQbnc47CWB7LX-5">
          <mxGeometry width="50" height="50" relative="1" as="geometry">
            <mxPoint x="145" y="382.5" as="sourcePoint" />
            <mxPoint x="225" y="262.5" as="targetPoint" />
            <Array as="points">
              <mxPoint x="195" y="382.5" />
            </Array>
          </mxGeometry>
        </mxCell>
        <mxCell id="tXQdEWdfQbnc47CWB7LX-79" value="" style="endArrow=none;html=1;rounded=0;exitX=1;exitY=0.5;exitDx=0;exitDy=0;labelBackgroundColor=none;fontColor=default;entryX=0.33;entryY=0.995;entryDx=0;entryDy=0;entryPerimeter=0;" parent="tXQdEWdfQbnc47CWB7LX-115" edge="1" target="tXQdEWdfQbnc47CWB7LX-5">
          <mxGeometry width="50" height="50" relative="1" as="geometry">
            <mxPoint x="145" y="452.5" as="sourcePoint" />
            <mxPoint x="250" y="262.5" as="targetPoint" />
            <Array as="points">
              <mxPoint x="205" y="452.5" />
            </Array>
          </mxGeometry>
        </mxCell>
        <mxCell id="jQuc2lfNtw6ME2mYDLK6-1" value="&lt;font style=&quot;font-size: 16px;&quot;&gt;N&lt;/font&gt;" style="text;html=1;align=center;verticalAlign=middle;resizable=0;points=[];autosize=1;strokeColor=none;fillColor=none;rounded=0;labelBackgroundColor=none;" parent="tXQdEWdfQbnc47CWB7LX-115" vertex="1">
          <mxGeometry x="605" y="202.5" width="40" height="30" as="geometry" />
        </mxCell>
        <mxCell id="PmIRj_t8G00yRO6Npbwz-12" value="" style="endArrow=none;html=1;rounded=0;exitX=1;exitY=0.5;exitDx=0;exitDy=0;entryX=0.414;entryY=0.995;entryDx=0;entryDy=0;entryPerimeter=0;" parent="tXQdEWdfQbnc47CWB7LX-115" edge="1" target="tXQdEWdfQbnc47CWB7LX-5">
          <mxGeometry width="50" height="50" relative="1" as="geometry">
            <mxPoint x="145" y="522.5" as="sourcePoint" />
            <mxPoint x="275" y="262.5" as="targetPoint" />
            <Array as="points">
              <mxPoint x="215" y="522.5" />
            </Array>
          </mxGeometry>
        </mxCell>
        <mxCell id="tXQdEWdfQbnc47CWB7LX-87" value="&lt;font style=&quot;font-size: 16px;&quot;&gt;Serial #&lt;u&gt;&lt;br&gt;&lt;/u&gt;&lt;/font&gt;" style="ellipse;whiteSpace=wrap;html=1;rounded=0;labelBackgroundColor=none;fillColor=#66B2FF;" parent="tXQdEWdfQbnc47CWB7LX-115" vertex="1">
          <mxGeometry x="260" y="452.5" width="70" height="55" as="geometry" />
        </mxCell>
        <mxCell id="PmIRj_t8G00yRO6Npbwz-29" value="&lt;font style=&quot;font-size: 16px;&quot;&gt;Identifier&lt;u&gt;&lt;br&gt;&lt;/u&gt;&lt;/font&gt;" style="ellipse;whiteSpace=wrap;html=1;rounded=0;labelBackgroundColor=none;fillColor=#66B2FF;" parent="tXQdEWdfQbnc47CWB7LX-115" vertex="1">
          <mxGeometry x="380" y="357.5" width="70" height="55" as="geometry" />
        </mxCell>
        <mxCell id="PmIRj_t8G00yRO6Npbwz-30" value="&lt;span style=&quot;font-size: 16px;&quot;&gt;Model&lt;/span&gt;&lt;u style=&quot;font-size: 16px;&quot;&gt;&lt;br&gt;&lt;/u&gt;" style="ellipse;whiteSpace=wrap;html=1;rounded=0;labelBackgroundColor=none;fillColor=#66B2FF;" parent="tXQdEWdfQbnc47CWB7LX-115" vertex="1">
          <mxGeometry x="465" y="357.5" width="70" height="55" as="geometry" />
        </mxCell>
        <mxCell id="PmIRj_t8G00yRO6Npbwz-55" value="&lt;div style=&quot;font-size: 16px;&quot;&gt;Type&lt;br&gt;&lt;/div&gt;" style="ellipse;whiteSpace=wrap;html=1;rounded=0;labelBackgroundColor=none;fillColor=#66B2FF;" parent="tXQdEWdfQbnc47CWB7LX-115" vertex="1">
          <mxGeometry x="340" y="452.5" width="70" height="55" as="geometry" />
        </mxCell>
        <mxCell id="PmIRj_t8G00yRO6Npbwz-56" value="&lt;div style=&quot;font-size: 16px;&quot;&gt;Purpose&lt;/div&gt;" style="ellipse;whiteSpace=wrap;html=1;rounded=0;labelBackgroundColor=none;fillColor=#66B2FF;" parent="tXQdEWdfQbnc47CWB7LX-115" vertex="1">
          <mxGeometry x="545" y="357.5" width="70" height="55" as="geometry" />
        </mxCell>
        <mxCell id="PmIRj_t8G00yRO6Npbwz-57" value="&lt;div style=&quot;font-size: 13px;&quot;&gt;&lt;font style=&quot;font-size: 16px;&quot;&gt;Notes&lt;/font&gt;&lt;/div&gt;" style="ellipse;whiteSpace=wrap;html=1;rounded=0;labelBackgroundColor=none;fillColor=#66B2FF;" parent="tXQdEWdfQbnc47CWB7LX-115" vertex="1">
          <mxGeometry x="300" y="357.5" width="70" height="55" as="geometry" />
        </mxCell>
        <mxCell id="PmIRj_t8G00yRO6Npbwz-65" value="" style="endArrow=none;html=1;rounded=0;exitX=0.425;exitY=0.004;exitDx=0;exitDy=0;exitPerimeter=0;dashed=1;entryX=0.165;entryY=1.016;entryDx=0;entryDy=0;entryPerimeter=0;" parent="tXQdEWdfQbnc47CWB7LX-115" source="PmIRj_t8G00yRO6Npbwz-57" edge="1" target="tXQdEWdfQbnc47CWB7LX-1">
          <mxGeometry width="50" height="50" relative="1" as="geometry">
            <mxPoint x="315" y="352.5" as="sourcePoint" />
            <mxPoint x="475" y="262.5" as="targetPoint" />
            <Array as="points">
              <mxPoint x="330" y="292.5" />
              <mxPoint x="485" y="292.5" />
            </Array>
          </mxGeometry>
        </mxCell>
        <mxCell id="PmIRj_t8G00yRO6Npbwz-66" value="" style="endArrow=none;html=1;rounded=0;exitX=0.423;exitY=0.007;exitDx=0;exitDy=0;exitPerimeter=0;entryX=0.333;entryY=1.001;entryDx=0;entryDy=0;entryPerimeter=0;" parent="tXQdEWdfQbnc47CWB7LX-115" edge="1" target="tXQdEWdfQbnc47CWB7LX-1" source="PmIRj_t8G00yRO6Npbwz-29">
          <mxGeometry width="50" height="50" relative="1" as="geometry">
            <mxPoint x="395" y="352.5" as="sourcePoint" />
            <mxPoint x="495" y="262.5" as="targetPoint" />
            <Array as="points">
              <mxPoint x="410" y="312.5" />
              <mxPoint x="505" y="312.5" />
            </Array>
          </mxGeometry>
        </mxCell>
        <mxCell id="l3rwseK5VilT8OplQuoL-1" value="&lt;u&gt;&lt;font style=&quot;font-size: 16px;&quot;&gt;UUID&lt;font style=&quot;font-size: 16px;&quot;&gt;&lt;br&gt;&lt;/font&gt;&lt;/font&gt;&lt;/u&gt;" style="ellipse;whiteSpace=wrap;html=1;rounded=0;labelBackgroundColor=none;fillColor=#66B2FF;dashed=1;" parent="tXQdEWdfQbnc47CWB7LX-115" vertex="1">
          <mxGeometry x="505" y="452.5" width="70" height="55" as="geometry" />
        </mxCell>
        <mxCell id="l3rwseK5VilT8OplQuoL-6" value="&lt;font style=&quot;font-size: 14px;&quot;&gt;&lt;font style=&quot;font-size: 14px;&quot;&gt;SWAP Reason&lt;/font&gt;&lt;u&gt;&lt;font style=&quot;font-size: 14px;&quot;&gt;&lt;font style=&quot;font-size: 14px;&quot;&gt;&lt;br&gt;&lt;/font&gt;&lt;/font&gt;&lt;/u&gt;&lt;/font&gt;" style="ellipse;whiteSpace=wrap;html=1;rounded=0;labelBackgroundColor=none;fillColor=#66B2FF;" parent="tXQdEWdfQbnc47CWB7LX-115" vertex="1">
          <mxGeometry x="425" y="452.5" width="70" height="55" as="geometry" />
        </mxCell>
        <mxCell id="CZeOcF1MpoTSiQB5olZM-2" value="&lt;font style=&quot;font-size: 16px;&quot;&gt;&lt;b&gt;Location&lt;br&gt;&lt;/b&gt;&lt;/font&gt;" style="rounded=0;whiteSpace=wrap;html=1;labelBackgroundColor=none;fillColor=#00CC00;" vertex="1" parent="tXQdEWdfQbnc47CWB7LX-115">
          <mxGeometry x="765" y="312.5" width="120" height="60" as="geometry" />
        </mxCell>
        <mxCell id="CZeOcF1MpoTSiQB5olZM-4" value="&lt;div&gt;Has&lt;/div&gt;" style="rhombus;whiteSpace=wrap;html=1;rounded=0;labelBackgroundColor=none;fillColor=#CC99FF;" vertex="1" parent="tXQdEWdfQbnc47CWB7LX-115">
          <mxGeometry x="645" y="312.5" width="60" height="60" as="geometry" />
        </mxCell>
        <mxCell id="PmIRj_t8G00yRO6Npbwz-67" value="" style="endArrow=none;html=1;rounded=0;entryX=0.5;entryY=1;entryDx=0;entryDy=0;exitX=0.5;exitY=0;exitDx=0;exitDy=0;" parent="tXQdEWdfQbnc47CWB7LX-115" edge="1" target="tXQdEWdfQbnc47CWB7LX-1" source="PmIRj_t8G00yRO6Npbwz-30">
          <mxGeometry width="50" height="50" relative="1" as="geometry">
            <mxPoint x="475" y="358.5" as="sourcePoint" />
            <mxPoint x="515" y="262.5" as="targetPoint" />
            <Array as="points">
              <mxPoint x="500" y="332.5" />
              <mxPoint x="525" y="332.5" />
            </Array>
          </mxGeometry>
        </mxCell>
        <mxCell id="l3rwseK5VilT8OplQuoL-3" value="" style="endArrow=none;html=1;rounded=0;entryX=0.585;entryY=1;entryDx=0;entryDy=0;exitX=0.431;exitY=0.012;exitDx=0;exitDy=0;entryPerimeter=0;exitPerimeter=0;" parent="tXQdEWdfQbnc47CWB7LX-115" edge="1">
          <mxGeometry width="50" height="50" relative="1" as="geometry">
            <mxPoint x="539.9599999999999" y="453.1600000000001" as="sourcePoint" />
            <mxPoint x="539.9899999999999" y="262.5" as="targetPoint" />
          </mxGeometry>
        </mxCell>
        <mxCell id="l3rwseK5VilT8OplQuoL-5" value="" style="endArrow=none;html=1;rounded=0;exitX=0.5;exitY=0;exitDx=0;exitDy=0;entryX=0.415;entryY=0.999;entryDx=0;entryDy=0;entryPerimeter=0;" parent="tXQdEWdfQbnc47CWB7LX-115" source="l3rwseK5VilT8OplQuoL-6" edge="1" target="tXQdEWdfQbnc47CWB7LX-1">
          <mxGeometry width="50" height="50" relative="1" as="geometry">
            <mxPoint x="405" y="362.5" as="sourcePoint" />
            <mxPoint x="504" y="262.5" as="targetPoint" />
            <Array as="points">
              <mxPoint x="460" y="322.5" />
              <mxPoint x="515" y="322.5" />
            </Array>
          </mxGeometry>
        </mxCell>
        <mxCell id="CZeOcF1MpoTSiQB5olZM-13" value="&lt;div style=&quot;font-size: 13px;&quot;&gt;Datacenter&lt;br&gt;&lt;/div&gt;" style="ellipse;whiteSpace=wrap;html=1;rounded=0;labelBackgroundColor=none;fillColor=#66B2FF;" vertex="1" parent="tXQdEWdfQbnc47CWB7LX-115">
          <mxGeometry x="715" y="477.5" width="70" height="55" as="geometry" />
        </mxCell>
        <mxCell id="CZeOcF1MpoTSiQB5olZM-14" value="&lt;div style=&quot;font-size: 13px;&quot;&gt;Rack&lt;/div&gt;" style="ellipse;whiteSpace=wrap;html=1;rounded=0;labelBackgroundColor=none;fillColor=#66B2FF;" vertex="1" parent="tXQdEWdfQbnc47CWB7LX-115">
          <mxGeometry x="795" y="477.5" width="70" height="55" as="geometry" />
        </mxCell>
        <mxCell id="CZeOcF1MpoTSiQB5olZM-15" value="&lt;div&gt;Rack Side&lt;/div&gt;" style="ellipse;whiteSpace=wrap;html=1;rounded=0;labelBackgroundColor=none;fillColor=#66B2FF;" vertex="1" parent="tXQdEWdfQbnc47CWB7LX-115">
          <mxGeometry x="955" y="477.5" width="70" height="55" as="geometry" />
        </mxCell>
        <mxCell id="CZeOcF1MpoTSiQB5olZM-16" value="&lt;div style=&quot;font-size: 13px;&quot;&gt;Building&lt;br&gt;&lt;/div&gt;" style="ellipse;whiteSpace=wrap;html=1;rounded=0;labelBackgroundColor=none;fillColor=#66B2FF;" vertex="1" parent="tXQdEWdfQbnc47CWB7LX-115">
          <mxGeometry x="635" y="477.5" width="70" height="55" as="geometry" />
        </mxCell>
        <mxCell id="CZeOcF1MpoTSiQB5olZM-17" value="&lt;div&gt;ID String&lt;br&gt;&lt;/div&gt;" style="ellipse;whiteSpace=wrap;html=1;rounded=0;labelBackgroundColor=none;fillColor=#66B2FF;" vertex="1" parent="tXQdEWdfQbnc47CWB7LX-115">
          <mxGeometry x="915" y="205" width="70" height="55" as="geometry" />
        </mxCell>
        <mxCell id="CZeOcF1MpoTSiQB5olZM-18" value="&lt;div&gt;Elevation&lt;/div&gt;" style="ellipse;whiteSpace=wrap;html=1;rounded=0;labelBackgroundColor=none;fillColor=#66B2FF;" vertex="1" parent="tXQdEWdfQbnc47CWB7LX-115">
          <mxGeometry x="875" y="477.5" width="70" height="55" as="geometry" />
        </mxCell>
        <mxCell id="CZeOcF1MpoTSiQB5olZM-20" value="&lt;font style=&quot;font-size: 16px;&quot;&gt;&lt;b&gt;Organization&lt;br&gt;&lt;/b&gt;&lt;/font&gt;" style="rounded=0;whiteSpace=wrap;html=1;labelBackgroundColor=none;fillColor=#00CC00;" vertex="1" parent="tXQdEWdfQbnc47CWB7LX-115">
          <mxGeometry x="15" y="72.5" width="120" height="60" as="geometry" />
        </mxCell>
        <mxCell id="CZeOcF1MpoTSiQB5olZM-21" value="&lt;div style=&quot;font-size: 15px;&quot;&gt;&lt;u&gt;PO #&lt;/u&gt;&lt;br&gt;&lt;/div&gt;" style="ellipse;whiteSpace=wrap;html=1;rounded=0;labelBackgroundColor=none;fillColor=#66B2FF;" vertex="1" parent="tXQdEWdfQbnc47CWB7LX-115">
          <mxGeometry x="75" y="287.5" width="70" height="55" as="geometry" />
        </mxCell>
        <mxCell id="CZeOcF1MpoTSiQB5olZM-22" value="&lt;div style=&quot;font-size: 15px;&quot;&gt;Date&lt;/div&gt;" style="ellipse;whiteSpace=wrap;html=1;rounded=0;labelBackgroundColor=none;fillColor=#66B2FF;" vertex="1" parent="tXQdEWdfQbnc47CWB7LX-115">
          <mxGeometry x="75" y="357.5" width="70" height="55" as="geometry" />
        </mxCell>
        <mxCell id="CZeOcF1MpoTSiQB5olZM-77" value="&lt;div style=&quot;font-size: 15px;&quot;&gt;Reason&lt;/div&gt;" style="ellipse;whiteSpace=wrap;html=1;rounded=0;labelBackgroundColor=none;fillColor=#66B2FF;" vertex="1" parent="tXQdEWdfQbnc47CWB7LX-115">
          <mxGeometry x="75" y="422.5" width="70" height="55" as="geometry" />
        </mxCell>
        <mxCell id="CZeOcF1MpoTSiQB5olZM-80" value="Fabrication" style="ellipse;whiteSpace=wrap;html=1;rounded=0;labelBackgroundColor=none;fillColor=#66B2FF;" vertex="1" parent="tXQdEWdfQbnc47CWB7LX-115">
          <mxGeometry x="75" y="492.5" width="70" height="55" as="geometry" />
        </mxCell>
        <mxCell id="CZeOcF1MpoTSiQB5olZM-83" value="" style="endArrow=none;html=1;rounded=0;entryX=0.25;entryY=1;entryDx=0;entryDy=0;exitX=0.5;exitY=0;exitDx=0;exitDy=0;" edge="1" parent="tXQdEWdfQbnc47CWB7LX-115" source="PmIRj_t8G00yRO6Npbwz-55" target="tXQdEWdfQbnc47CWB7LX-1">
          <mxGeometry width="50" height="50" relative="1" as="geometry">
            <mxPoint x="355" y="452.5" as="sourcePoint" />
            <mxPoint x="405" y="402.5" as="targetPoint" />
            <Array as="points">
              <mxPoint x="375" y="302.5" />
              <mxPoint x="495" y="302.5" />
            </Array>
          </mxGeometry>
        </mxCell>
        <mxCell id="CZeOcF1MpoTSiQB5olZM-84" value="" style="endArrow=none;html=1;rounded=0;entryX=0.75;entryY=1;entryDx=0;entryDy=0;exitX=0.437;exitY=0.002;exitDx=0;exitDy=0;exitPerimeter=0;" edge="1" parent="tXQdEWdfQbnc47CWB7LX-115" source="PmIRj_t8G00yRO6Npbwz-56" target="tXQdEWdfQbnc47CWB7LX-1">
          <mxGeometry width="50" height="50" relative="1" as="geometry">
            <mxPoint x="565" y="357.5" as="sourcePoint" />
            <mxPoint x="615" y="307.5" as="targetPoint" />
            <Array as="points">
              <mxPoint x="575" y="312.5" />
              <mxPoint x="555" y="312.5" />
            </Array>
          </mxGeometry>
        </mxCell>
        <mxCell id="CZeOcF1MpoTSiQB5olZM-88" value="" style="endArrow=none;html=1;rounded=0;entryX=0;entryY=0.5;entryDx=0;entryDy=0;" edge="1" parent="tXQdEWdfQbnc47CWB7LX-115" target="CZeOcF1MpoTSiQB5olZM-2">
          <mxGeometry width="50" height="50" relative="1" as="geometry">
            <mxPoint x="705" y="342.5" as="sourcePoint" />
            <mxPoint x="755" y="292.5" as="targetPoint" />
          </mxGeometry>
        </mxCell>
        <mxCell id="CZeOcF1MpoTSiQB5olZM-89" value="&lt;font style=&quot;font-size: 16px;&quot;&gt;1&lt;/font&gt;" style="text;html=1;align=center;verticalAlign=middle;resizable=0;points=[];autosize=1;strokeColor=none;fillColor=none;rounded=0;labelBackgroundColor=none;" vertex="1" parent="tXQdEWdfQbnc47CWB7LX-115">
          <mxGeometry x="715" y="312.5" width="30" height="30" as="geometry" />
        </mxCell>
        <mxCell id="CZeOcF1MpoTSiQB5olZM-90" value="" style="endArrow=none;html=1;rounded=0;entryX=0;entryY=0.5;entryDx=0;entryDy=0;" edge="1" parent="tXQdEWdfQbnc47CWB7LX-115" target="CZeOcF1MpoTSiQB5olZM-4">
          <mxGeometry width="50" height="50" relative="1" as="geometry">
            <mxPoint x="585" y="242.5" as="sourcePoint" />
            <mxPoint x="645" y="332.5" as="targetPoint" />
            <Array as="points">
              <mxPoint x="605" y="242.5" />
              <mxPoint x="605" y="342.5" />
            </Array>
          </mxGeometry>
        </mxCell>
        <mxCell id="CZeOcF1MpoTSiQB5olZM-91" value="&lt;font style=&quot;font-size: 16px;&quot;&gt;1&lt;/font&gt;" style="text;html=1;align=center;verticalAlign=middle;resizable=0;points=[];autosize=1;strokeColor=none;fillColor=none;rounded=0;labelBackgroundColor=none;" vertex="1" parent="tXQdEWdfQbnc47CWB7LX-115">
          <mxGeometry x="610" y="312.5" width="30" height="30" as="geometry" />
        </mxCell>
        <mxCell id="CZeOcF1MpoTSiQB5olZM-92" value="" style="endArrow=none;html=1;rounded=0;entryX=0;entryY=0.5;entryDx=0;entryDy=0;" edge="1" parent="tXQdEWdfQbnc47CWB7LX-115" target="CZeOcF1MpoTSiQB5olZM-17">
          <mxGeometry width="50" height="50" relative="1" as="geometry">
            <mxPoint x="885" y="232.5" as="sourcePoint" />
            <mxPoint x="935" y="182.5" as="targetPoint" />
          </mxGeometry>
        </mxCell>
        <mxCell id="CZeOcF1MpoTSiQB5olZM-93" value="" style="endArrow=none;html=1;rounded=0;exitX=0.5;exitY=0;exitDx=0;exitDy=0;" edge="1" parent="tXQdEWdfQbnc47CWB7LX-115" source="CZeOcF1MpoTSiQB5olZM-16">
          <mxGeometry width="50" height="50" relative="1" as="geometry">
            <mxPoint x="735" y="422.5" as="sourcePoint" />
            <mxPoint x="785" y="372.5" as="targetPoint" />
            <Array as="points">
              <mxPoint x="670" y="402.5" />
              <mxPoint x="785" y="402.5" />
            </Array>
          </mxGeometry>
        </mxCell>
        <mxCell id="CZeOcF1MpoTSiQB5olZM-94" value="" style="endArrow=none;html=1;rounded=0;exitX=0.5;exitY=0;exitDx=0;exitDy=0;" edge="1" parent="tXQdEWdfQbnc47CWB7LX-115" source="CZeOcF1MpoTSiQB5olZM-13">
          <mxGeometry width="50" height="50" relative="1" as="geometry">
            <mxPoint x="745" y="422.5" as="sourcePoint" />
            <mxPoint x="795" y="372.5" as="targetPoint" />
            <Array as="points">
              <mxPoint x="750" y="412.5" />
              <mxPoint x="795" y="412.5" />
            </Array>
          </mxGeometry>
        </mxCell>
        <mxCell id="CZeOcF1MpoTSiQB5olZM-97" value="" style="endArrow=none;html=1;rounded=0;exitX=0.5;exitY=0;exitDx=0;exitDy=0;" edge="1" parent="tXQdEWdfQbnc47CWB7LX-115" source="CZeOcF1MpoTSiQB5olZM-14">
          <mxGeometry width="50" height="50" relative="1" as="geometry">
            <mxPoint x="755" y="422.5" as="sourcePoint" />
            <mxPoint x="805" y="372.5" as="targetPoint" />
            <Array as="points">
              <mxPoint x="830" y="412.5" />
              <mxPoint x="805" y="412.5" />
            </Array>
          </mxGeometry>
        </mxCell>
        <mxCell id="CZeOcF1MpoTSiQB5olZM-98" value="" style="endArrow=none;html=1;rounded=0;exitX=0.5;exitY=0;exitDx=0;exitDy=0;" edge="1" parent="tXQdEWdfQbnc47CWB7LX-115" source="CZeOcF1MpoTSiQB5olZM-15">
          <mxGeometry width="50" height="50" relative="1" as="geometry">
            <mxPoint x="775" y="422.5" as="sourcePoint" />
            <mxPoint x="825" y="372.5" as="targetPoint" />
            <Array as="points">
              <mxPoint x="990" y="392.5" />
              <mxPoint x="825" y="392.5" />
            </Array>
          </mxGeometry>
        </mxCell>
        <mxCell id="CZeOcF1MpoTSiQB5olZM-95" value="" style="endArrow=none;html=1;rounded=0;exitX=0.5;exitY=0;exitDx=0;exitDy=0;" edge="1" parent="tXQdEWdfQbnc47CWB7LX-115" source="CZeOcF1MpoTSiQB5olZM-18">
          <mxGeometry width="50" height="50" relative="1" as="geometry">
            <mxPoint x="765" y="422.5" as="sourcePoint" />
            <mxPoint x="815" y="372.5" as="targetPoint" />
            <Array as="points">
              <mxPoint x="910" y="402.5" />
              <mxPoint x="815" y="402.5" />
            </Array>
          </mxGeometry>
        </mxCell>
        <mxCell id="CZeOcF1MpoTSiQB5olZM-99" value="Initiates" style="rhombus;whiteSpace=wrap;html=1;rounded=0;labelBackgroundColor=none;fillColor=#CC99FF;" vertex="1" parent="tXQdEWdfQbnc47CWB7LX-115">
          <mxGeometry x="45" y="202.5" width="60" height="60" as="geometry" />
        </mxCell>
        <mxCell id="CZeOcF1MpoTSiQB5olZM-100" value="" style="endArrow=none;html=1;rounded=0;exitX=0.5;exitY=0;exitDx=0;exitDy=0;" edge="1" parent="tXQdEWdfQbnc47CWB7LX-115" source="CZeOcF1MpoTSiQB5olZM-99">
          <mxGeometry width="50" height="50" relative="1" as="geometry">
            <mxPoint x="25" y="182.5" as="sourcePoint" />
            <mxPoint x="75" y="132.5" as="targetPoint" />
          </mxGeometry>
        </mxCell>
        <mxCell id="CZeOcF1MpoTSiQB5olZM-101" value="" style="endArrow=none;html=1;rounded=0;entryX=0;entryY=0.5;entryDx=0;entryDy=0;exitX=1;exitY=0.5;exitDx=0;exitDy=0;" edge="1" parent="tXQdEWdfQbnc47CWB7LX-115" source="CZeOcF1MpoTSiQB5olZM-99" target="tXQdEWdfQbnc47CWB7LX-5">
          <mxGeometry width="50" height="50" relative="1" as="geometry">
            <mxPoint x="105" y="232.5" as="sourcePoint" />
            <mxPoint x="155" y="182.5" as="targetPoint" />
          </mxGeometry>
        </mxCell>
        <mxCell id="CZeOcF1MpoTSiQB5olZM-102" value="&lt;font style=&quot;font-size: 16px;&quot;&gt;1&lt;/font&gt;" style="text;html=1;align=center;verticalAlign=middle;resizable=0;points=[];autosize=1;strokeColor=none;fillColor=none;rounded=0;labelBackgroundColor=none;" vertex="1" parent="tXQdEWdfQbnc47CWB7LX-115">
          <mxGeometry x="45" y="152.5" width="30" height="30" as="geometry" />
        </mxCell>
        <mxCell id="CZeOcF1MpoTSiQB5olZM-103" value="N" style="text;html=1;align=center;verticalAlign=middle;resizable=0;points=[];autosize=1;strokeColor=none;fillColor=none;rounded=0;labelBackgroundColor=none;" vertex="1" parent="tXQdEWdfQbnc47CWB7LX-115">
          <mxGeometry x="115" y="202.5" width="30" height="30" as="geometry" />
        </mxCell>
        <mxCell id="CZeOcF1MpoTSiQB5olZM-105" value="Owns" style="rhombus;whiteSpace=wrap;html=1;rounded=0;labelBackgroundColor=none;fillColor=#CC99FF;" vertex="1" parent="tXQdEWdfQbnc47CWB7LX-115">
          <mxGeometry x="345" y="92.5" width="60" height="60" as="geometry" />
        </mxCell>
        <mxCell id="CZeOcF1MpoTSiQB5olZM-106" value="Issues" style="rhombus;whiteSpace=wrap;html=1;rounded=0;labelBackgroundColor=none;fillColor=#CC99FF;" vertex="1" parent="tXQdEWdfQbnc47CWB7LX-115">
          <mxGeometry x="635" y="52.5" width="60" height="60" as="geometry" />
        </mxCell>
        <mxCell id="CZeOcF1MpoTSiQB5olZM-107" value="" style="endArrow=none;html=1;rounded=0;exitX=0;exitY=0.5;exitDx=0;exitDy=0;entryX=1.004;entryY=0.834;entryDx=0;entryDy=0;entryPerimeter=0;" edge="1" parent="tXQdEWdfQbnc47CWB7LX-115" source="CZeOcF1MpoTSiQB5olZM-105" target="CZeOcF1MpoTSiQB5olZM-20">
          <mxGeometry width="50" height="50" relative="1" as="geometry">
            <mxPoint x="85" y="152.5" as="sourcePoint" />
            <mxPoint x="135" y="102.5" as="targetPoint" />
            <Array as="points" />
          </mxGeometry>
        </mxCell>
        <mxCell id="CZeOcF1MpoTSiQB5olZM-108" value="" style="endArrow=none;html=1;rounded=0;entryX=0;entryY=0.5;entryDx=0;entryDy=0;" edge="1" parent="tXQdEWdfQbnc47CWB7LX-115" target="CZeOcF1MpoTSiQB5olZM-106">
          <mxGeometry width="50" height="50" relative="1" as="geometry">
            <mxPoint x="135" y="82.5" as="sourcePoint" />
            <mxPoint x="185" y="32.5" as="targetPoint" />
          </mxGeometry>
        </mxCell>
        <mxCell id="CZeOcF1MpoTSiQB5olZM-109" value="" style="endArrow=none;html=1;rounded=0;exitX=0.5;exitY=0;exitDx=0;exitDy=0;" edge="1" parent="tXQdEWdfQbnc47CWB7LX-115" source="tXQdEWdfQbnc47CWB7LX-1">
          <mxGeometry width="50" height="50" relative="1" as="geometry">
            <mxPoint x="355" y="172.5" as="sourcePoint" />
            <mxPoint x="405" y="122.5" as="targetPoint" />
            <Array as="points">
              <mxPoint x="525" y="122.5" />
            </Array>
          </mxGeometry>
        </mxCell>
        <mxCell id="CZeOcF1MpoTSiQB5olZM-110" value="" style="endArrow=none;html=1;rounded=0;exitX=0.5;exitY=0;exitDx=0;exitDy=0;" edge="1" parent="tXQdEWdfQbnc47CWB7LX-115" source="tXQdEWdfQbnc47CWB7LX-7">
          <mxGeometry width="50" height="50" relative="1" as="geometry">
            <mxPoint x="645" y="132.5" as="sourcePoint" />
            <mxPoint x="695" y="82.5" as="targetPoint" />
            <Array as="points">
              <mxPoint x="825" y="82.5" />
            </Array>
          </mxGeometry>
        </mxCell>
        <mxCell id="CZeOcF1MpoTSiQB5olZM-111" value="&lt;font style=&quot;font-size: 16px;&quot;&gt;1&lt;/font&gt;" style="text;html=1;align=center;verticalAlign=middle;resizable=0;points=[];autosize=1;strokeColor=none;fillColor=none;rounded=0;labelBackgroundColor=none;" vertex="1" parent="tXQdEWdfQbnc47CWB7LX-115">
          <mxGeometry x="285" y="122.5" width="30" height="30" as="geometry" />
        </mxCell>
        <mxCell id="CZeOcF1MpoTSiQB5olZM-112" value="&lt;font style=&quot;font-size: 16px;&quot;&gt;N&lt;/font&gt;" style="text;html=1;align=center;verticalAlign=middle;resizable=0;points=[];autosize=1;strokeColor=none;fillColor=none;rounded=0;labelBackgroundColor=none;" vertex="1" parent="tXQdEWdfQbnc47CWB7LX-115">
          <mxGeometry x="425" y="122.5" width="40" height="30" as="geometry" />
        </mxCell>
        <mxCell id="CZeOcF1MpoTSiQB5olZM-113" value="&lt;font style=&quot;font-size: 16px;&quot;&gt;1&lt;/font&gt;" style="text;html=1;align=center;verticalAlign=middle;resizable=0;points=[];autosize=1;strokeColor=none;fillColor=none;rounded=0;labelBackgroundColor=none;" vertex="1" parent="tXQdEWdfQbnc47CWB7LX-115">
          <mxGeometry x="565" y="52.5" width="30" height="30" as="geometry" />
        </mxCell>
        <mxCell id="CZeOcF1MpoTSiQB5olZM-114" value="&lt;font style=&quot;font-size: 16px;&quot;&gt;N&lt;/font&gt;" style="text;html=1;align=center;verticalAlign=middle;resizable=0;points=[];autosize=1;strokeColor=none;fillColor=none;rounded=0;labelBackgroundColor=none;" vertex="1" parent="tXQdEWdfQbnc47CWB7LX-115">
          <mxGeometry x="740" y="52.5" width="40" height="30" as="geometry" />
        </mxCell>
      </root>
    </mxGraphModel>
  </diagram>
</mxfile>
